<svg viewBox="0 -27 512.002 512" xmlns="http://www.w3.org/2000/svg"><path d="m364.328125 10h-318.71875c-19.664063 0-35.609375 15.945312-35.609375 35.609375v366.792969c0 19.667968 15.945312 35.609375 35.609375 35.609375h318.71875c19.664063 0 35.609375-15.941407 35.609375-35.609375v-366.792969c0-19.664063-15.945312-35.609375-35.609375-35.609375zm0 0" fill="#72d8ff"/><path d="m364.328125 10h-318.71875c-19.664063 0-35.609375 15.945312-35.609375 35.609375v78.34375h389.9375v-78.34375c0-19.664063-15.945312-35.609375-35.609375-35.609375zm0 0" fill="#edf2fa"/><path d="m322.484375 285.984375c0 64.902344-52.613281 117.515625-117.515625 117.515625s-117.515625-52.613281-117.515625-117.515625 52.613281-117.515625 117.515625-117.515625 117.515625 52.613281 117.515625 117.515625zm0 0" fill="#fff"/><path d="m286.871094 285.984375c0 45.234375-36.667969 81.902344-81.902344 81.902344s-81.90625-36.667969-81.90625-81.902344 36.671875-81.90625 81.90625-81.90625 81.902344 36.671875 81.902344 81.90625zm0 0" fill="#fff"/><path d="m204.96875 367.886719c45.234375 0 81.902344-36.667969 81.902344-81.902344 0-.367187-.007813-.734375-.011719-1.101563l-.117187-.261718c-6.742188 7.304687-16.394532 11.886718-27.121094 11.886718-10.726563 0-20.382813-4.582031-27.125-11.886718-6.742188 7.304687-16.394532 11.886718-27.121094 11.886718s-20.382812-4.582031-27.125-11.886718c-6.742188 7.304687-16.394531 11.886718-27.121094 11.886718-10.726562 0-20.378906-4.582031-27.121094-11.886718l-.933593.53125c-.003907.277344-.011719.554687-.011719.832031 0 45.234375 36.671875 81.902344 81.90625 81.902344zm0 0" fill="#4dbaf6"/><path d="m502 355.035156c0-17.105468-13.867188-30.976562-30.976562-30.976562h-150.707032c-28.535156 0-51.664062 23.132812-51.664062 51.664062v20.582032c0 28.535156 23.128906 51.664062 51.664062 51.664062h150.707032c17.109374 0 30.976562-13.867188 30.976562-30.976562 0-17.109376-13.867188-30.976563-30.976562-30.976563 17.109374 0 30.976562-13.871094 30.976562-30.980469zm0 0" fill="#ffc66c"/><path d="m470.953125 324.058594h-171.3125c-17.148437 0-31.046875-13.898438-31.046875-31.046875 0-17.148438 13.898438-31.046875 31.046875-31.046875h171.3125c17.144531 0 31.046875 13.898437 31.046875 31.046875 0 17.148437-13.902344 31.046875-31.046875 31.046875zm0 0" fill="#feda9b"/><path d="m115.578125 195.046875c-4.019531 3.976563-4.085937 10.21875-.152344 14.203125 1.972657 1.996094 4.523438 2.996094 7.085938 2.996094 2.546875 0 5.105469-.988282 7.117187-2.964844.015625-.015625.027344-.03125.042969-.042969 4.007813-3.992187 4.054687-10.230469.109375-14.203125s-10.183594-3.96875-14.203125.011719zm0 0"/><path d="m58.074219 88.105469c5.523437 0 10-4.476563 10-10v-26.707031c0-5.523438-4.476563-10-10-10-5.523438 0-10 4.476562-10 10v26.707031c0 5.523437 4.476562 10 10 10zm0 0"/><path d="m93.980469 88.105469c5.523437 0 10-4.476563 10-10v-26.707031c0-5.523438-4.476563-10-10-10-5.519531 0-10 4.476562-10 10v26.707031c0 5.523437 4.480469 10 10 10zm0 0"/><path d="m129.890625 88.105469c5.519531 0 10-4.476563 10-10v-26.707031c0-5.523438-4.480469-10-10-10-5.523437 0-10 4.476562-10 10v26.707031c0 5.523437 4.476563 10 10 10zm0 0"/><path d="m165.796875 88.105469c5.523437 0 10-4.476563 10-10v-26.707031c0-5.523438-4.476563-10-10-10s-10 4.476562-10 10v26.707031c0 5.523437 4.476563 10 10 10zm0 0"/><path d="m256.136719 74.753906c2.628906 0 5.210937-1.070312 7.070312-2.933594 1.859375-1.859374 2.929688-4.4375 2.929688-7.066406 0-2.632812-1.070313-5.210937-2.929688-7.070312-1.871093-1.859375-4.441406-2.929688-7.070312-2.929688-2.628907 0-5.210938 1.066406-7.070313 2.929688-1.871094 1.859375-2.929687 4.4375-2.929687 7.070312 0 2.628906 1.058593 5.207032 2.929687 7.066406 1.859375 1.863282 4.429688 2.933594 7.070313 2.933594zm0 0"/><path d="m296.636719 74.753906c2.632812 0 5.210937-1.070312 7.070312-2.933594 1.859375-1.859374 2.929688-4.4375 2.929688-7.066406 0-2.632812-1.070313-5.210937-2.929688-7.070312s-4.4375-2.929688-7.070312-2.929688c-2.640625 0-5.210938 1.066406-7.070313 2.929688-1.867187 1.859375-2.929687 4.4375-2.929687 7.070312 0 2.628906 1.0625 5.207032 2.929687 7.066406 1.859375 1.863282 4.429688 2.933594 7.070313 2.933594zm0 0"/><path d="m337.136719 74.753906c2.632812 0 5.203125-1.070312 7.070312-2.933594 1.859375-1.859374 2.933594-4.4375 2.933594-7.066406 0-2.632812-1.070313-5.210937-2.933594-7.070312-1.859375-1.859375-4.4375-2.929688-7.070312-2.929688-2.628907 0-5.207031 1.066406-7.078125 2.929688-1.859375 1.859375-2.921875 4.4375-2.921875 7.070312 0 2.628906 1.0625 5.207032 2.921875 7.066406 1.871094 1.863282 4.449218 2.933594 7.078125 2.933594zm0 0"/><path d="m512 355.035156c0-12.371094-5.519531-23.476562-14.21875-30.996094 8.699219-7.53125 14.21875-18.644531 14.21875-31.027343 0-22.636719-18.414062-41.046875-41.046875-41.046875h-143.074219c-5.847656-21.175782-17.101562-40.507813-32.746094-56.148438-19.714843-19.71875-44.691406-32.195312-72.230468-36.089844-26.625-3.761718-54.285156 1.097657-77.898438 13.683594-4.875 2.597656-6.71875 8.65625-4.121094 13.527344 2.597657 4.875 8.65625 6.722656 13.53125 4.121094 42.011719-22.394532 92.878907-14.800782 126.578126 18.898437 11.867187 11.867188 20.722656 26.25 25.972656 42.003907h-7.324219c-3.058594 0-6.035156.347656-8.90625.984374-13.511719-35.0625-47.582031-58.867187-85.765625-58.867187-50.675781 0-91.90625 41.226563-91.90625 91.902344s41.230469 91.90625 91.90625 91.90625c20.585938 0 40.265625-7.035157 56.101562-19.21875-1.5625 5.417969-2.417968 11.136719-2.417968 17.050781v3.425781c-42.132813 24.367188-95.03125 17.535157-129.710938-17.140625-34.703125-34.703125-41.542968-88.421875-16.625-130.625 2.808594-4.757812 1.230469-10.886718-3.527344-13.695312-4.753906-2.808594-10.886718-1.226563-13.695312 3.527344-29.554688 50.0625-21.453125 113.777343 19.707031 154.9375 20.429688 20.425781 47.460938 33.417968 76.121094 36.578124 4.632813.511719 9.28125.761719 13.917969.761719 18.667968 0 37.191406-4.109375 54.050781-11.949219 1.183594 14.003907 7.058594 26.691407 16.054687 36.46875h-229.335937c-14.121094.003907-25.609375-11.484374-25.609375-25.605468v-278.445313h369.9375v73.464844c0 5.523437 4.476562 10 10 10s10-4.476563 10-10v-161.8125c0-25.148437-20.460938-45.609375-45.609375-45.609375h-318.71875c-25.148437 0-45.609375 20.460938-45.609375 45.609375v366.792969c0 25.148437 20.460938 45.609375 45.609375 45.609375h264.472656c1.0625 0 2.085938-.167969 3.046875-.476563 2.359375.277344 4.753906.433594 7.183594.433594h136.152344c.054687 0 .109375-.007812.164062-.007812.058594 0 .109375.007812.167969.007812h14.226563c22.597656 0 40.980468-18.382812 40.980468-40.976562 0-12.367188-5.515625-23.460938-14.199218-30.980469 8.683593-7.515625 14.195312-18.609375 14.195312-30.976563zm-466.390625-335.035156h318.71875c14.121094 0 25.609375 11.488281 25.609375 25.609375v68.34375h-369.9375v-68.34375c0-14.121094 11.488281-25.609375 25.609375-25.609375zm425.34375 251.964844c11.605469 0 21.046875 9.441406 21.046875 21.046875s-9.441406 21.046875-21.046875 21.046875h-171.3125c-11.605469 0-21.046875-9.441406-21.046875-21.046875s9.441406-21.046875 21.046875-21.046875zm-265.984375-57.886719c30.558594 0 57.75 19.480469 67.804688 47.941406-7.125 6.183594-12.105469 14.765625-13.660157 24.484375-7.550781-.027344-14.535156-3.101562-19.671875-8.664062-1.894531-2.054688-4.558594-3.21875-7.351562-3.21875-2.792969 0-5.457032 1.164062-7.347656 3.21875-5.160157 5.589844-12.183594 8.667968-19.773438 8.667968-7.59375 0-14.613281-3.078124-19.773438-8.667968-1.894531-2.054688-4.558593-3.21875-7.347656-3.21875-2.792968 0-5.457031 1.164062-7.351562 3.21875-5.15625 5.589844-12.179688 8.667968-19.773438 8.667968-6.484375 0-12.550781-2.253906-17.398437-6.394531 3-36.910156 33.972656-66.035156 71.644531-66.035156zm0 143.808594c-33.472656 0-61.675781-22.988281-69.648438-54.011719 4.914063 1.714844 10.117188 2.632812 15.402344 2.632812 9.761719 0 19.253906-3.082031 27.125-8.648437 7.867188 5.566406 17.359375 8.648437 27.121094 8.648437s19.25-3.082031 27.121094-8.648437c7.871094 5.566406 17.363281 8.648437 27.125 8.648437.550781 0 1.089844-.054687 1.621094-.140624 1.703124 4.9375 4.320312 9.445312 7.652343 13.332031-12.402343 23.292969-37.003906 38.1875-63.519531 38.1875zm159.539062 18.128906c-5.519531 0-10 4.476563-10 10 0 5.519531 4.480469 10 10 10h106.515626c11.566406 0 20.976562 9.410156 20.976562 20.976563 0 11.566406-9.410156 20.976562-20.976562 20.976562h-14.230469c-.054688 0-.109375.007812-.164063.007812-.054687 0-.109375-.007812-.167968-.007812h-136.144532c-22.972656 0-41.664062-18.6875-41.664062-41.660156v-20.585938c0-22.972656 18.691406-41.660156 41.664062-41.660156h150.707032c11.566406 0 20.976562 9.410156 20.976562 20.976562 0 11.566407-9.410156 20.976563-20.976562 20.976563zm0 0"/><path d="m327.007812 376.011719c-2.628906 0-5.210937 1.066406-7.070312 2.929687-1.859375 1.859375-2.929688 4.4375-2.929688 7.070313 0 2.640625 1.070313 5.210937 2.929688 7.066406 1.859375 1.871094 4.441406 2.933594 7.070312 2.933594 2.628907 0 5.210938-1.0625 7.070313-2.933594 1.859375-1.855469 2.929687-4.4375 2.929687-7.066406 0-2.632813-1.070312-5.199219-2.929687-7.070313-1.859375-1.863281-4.441406-2.929687-7.070313-2.929687zm0 0"/></svg>